<?xml version="1.0" encoding="UTF-8" standalone="no"?>
<!-- Created with Inkscape (http://www.inkscape.org/) -->

<svg
   xmlns:dc="http://purl.org/dc/elements/1.1/"
   xmlns:cc="http://creativecommons.org/ns#"
   xmlns:rdf="http://www.w3.org/1999/02/22-rdf-syntax-ns#"
   xmlns:svg="http://www.w3.org/2000/svg"
   xmlns="http://www.w3.org/2000/svg"
   xmlns:xlink="http://www.w3.org/1999/xlink"
   xmlns:sodipodi="http://sodipodi.sourceforge.net/DTD/sodipodi-0.dtd"
   xmlns:inkscape="http://www.inkscape.org/namespaces/inkscape"
   width="33mm"
   height="38mm"
   viewBox="0 0 33 38"
   version="1.1"
   id="svg963"
   inkscape:version="0.92.3 (unknown)"
   sodipodi:docname="pause_btn_up.svg">
  <defs
     id="defs957">
    <linearGradient
       inkscape:collect="always"
       xlink:href="#linearGradient824"
       id="linearGradient917"
       gradientUnits="userSpaceOnUse"
       x1="60.117603"
       y1="71.928551"
       x2="59.800636"
       y2="40.084057"
       gradientTransform="translate(-42.797659,219.93895)" />
    <linearGradient
       inkscape:collect="always"
       id="linearGradient824">
      <stop
         style="stop-color:#9ea8af;stop-opacity:1;"
         offset="0"
         id="stop820" />
      <stop
         style="stop-color:#878a9b;stop-opacity:1"
         offset="1"
         id="stop822" />
    </linearGradient>
  </defs>
  <sodipodi:namedview
     id="base"
     pagecolor="#ffffff"
     bordercolor="#666666"
     borderopacity="1.0"
     inkscape:pageopacity="0.0"
     inkscape:pageshadow="2"
     inkscape:zoom="2.8"
     inkscape:cx="53.588229"
     inkscape:cy="68.66583"
     inkscape:document-units="mm"
     inkscape:current-layer="layer1"
     showgrid="false"
     inkscape:window-width="1920"
     inkscape:window-height="1013"
     inkscape:window-x="0"
     inkscape:window-y="40"
     inkscape:window-maximized="1" />
  <metadata
     id="metadata960">
    <rdf:RDF>
      <cc:Work
         rdf:about="">
        <dc:format>image/svg+xml</dc:format>
        <dc:type
           rdf:resource="http://purl.org/dc/dcmitype/StillImage" />
        <dc:title></dc:title>
      </cc:Work>
    </rdf:RDF>
  </metadata>
  <g
     inkscape:label="Layer 1"
     inkscape:groupmode="layer"
     id="layer1"
     transform="translate(0,-259)">
    <path
       sodipodi:nodetypes="ccccc"
       inkscape:connector-curvature="0"
       id="path913"
       d="M 1.5583332,259.89801 H 31.441667 l 1.058333,32 H 0.50000003 Z"
       style="fill:url(#linearGradient917);fill-opacity:1;stroke-width:0.20895377" />
    <path
       style="fill:#444d53;fill-opacity:1;stroke-width:0.07573648"
       d="M 1.5583332,296.10199 H 31.441667 L 32.5,291.89801 H 0.50000003 Z"
       id="path915"
       inkscape:connector-curvature="0"
       sodipodi:nodetypes="ccccc" />
    <g
       transform="translate(-93.834086,168.77026)"
       id="g933">
      <path
         style="fill:#606971;fill-opacity:1;stroke-width:0.26458332"
         d="m 106.10646,99.454834 h 2.49502 c 0.48152,0 0.88717,0.387982 0.86916,0.869156 l -0.52917,14.13669 c -0.018,0.48117 -0.38764,0.86915 -0.86916,0.86915 h -3.02418 c -0.48151,0 -0.90511,-0.38898 -0.86916,-0.86915 l 1.05833,-14.13669 c 0.0359,-0.480167 0.38765,-0.869156 0.86916,-0.869156 z"
         id="rect925"
         inkscape:connector-curvature="0"
         sodipodi:nodetypes="sssssssss" />
      <path
         style="fill:#e5e7e9;fill-opacity:1;stroke-width:0.26458332"
         d="m 105.57729,98.925667 h 2.49502 c 0.48152,0 0.88717,0.387982 0.86916,0.869159 l -0.52917,14.136684 c -0.018,0.48117 -0.38764,0.86916 -0.86916,0.86916 h -3.02418 c -0.48151,0 -0.90511,-0.38899 -0.86916,-0.86916 l 1.05833,-14.136684 c 0.0359,-0.48017 0.38765,-0.869159 0.86916,-0.869159 z"
         id="rect927"
         inkscape:connector-curvature="0"
         sodipodi:nodetypes="sssssssss" />
      <path
         style="fill:#606971;fill-opacity:1;stroke-width:0.26458332"
         d="m 112.59586,99.454834 h 2.49502 c 0.48151,0 0.83321,0.388989 0.86916,0.869156 l 1.05833,14.13669 c 0.0359,0.48017 -0.38765,0.86915 -0.86916,0.86915 h -3.02418 c -0.48152,0 -0.85115,-0.38798 -0.86916,-0.86915 l -0.52917,-14.13669 c -0.018,-0.481174 0.38764,-0.869156 0.86916,-0.869156 z"
         id="rect929"
         inkscape:connector-curvature="0"
         sodipodi:nodetypes="sssssssss" />
      <path
         style="fill:#e5e7e9;fill-opacity:1;stroke-width:0.26458332"
         d="m 112.0667,98.925667 h 2.49502 c 0.48151,0 0.83321,0.388989 0.86916,0.869159 l 1.05833,14.136684 c 0.0359,0.48017 -0.38765,0.86916 -0.86916,0.86916 h -3.02418 c -0.48152,0 -0.85115,-0.38799 -0.86916,-0.86916 l -0.52917,-14.136684 c -0.018,-0.481177 0.38764,-0.869159 0.86916,-0.869159 z"
         id="rect931"
         inkscape:connector-curvature="0"
         sodipodi:nodetypes="sssssssss" />
    </g>
  </g>
</svg>
