<?xml version="1.0" encoding="UTF-8" standalone="no"?>
<!-- Created with Inkscape (http://www.inkscape.org/) -->

<svg
   xmlns:dc="http://purl.org/dc/elements/1.1/"
   xmlns:cc="http://creativecommons.org/ns#"
   xmlns:rdf="http://www.w3.org/1999/02/22-rdf-syntax-ns#"
   xmlns:svg="http://www.w3.org/2000/svg"
   xmlns="http://www.w3.org/2000/svg"
   xmlns:xlink="http://www.w3.org/1999/xlink"
   xmlns:sodipodi="http://sodipodi.sourceforge.net/DTD/sodipodi-0.dtd"
   xmlns:inkscape="http://www.inkscape.org/namespaces/inkscape"
   width="210mm"
   height="297mm"
   viewBox="0 0 210 297"
   version="1.1"
   id="svg8"
   sodipodi:docname="StereoButtonTemplate.svg"
   inkscape:version="0.92.3 (unknown)">
  <defs
     id="defs2">
    <linearGradient
       inkscape:collect="always"
       id="linearGradient824">
      <stop
         style="stop-color:#9ea8af;stop-opacity:1;"
         offset="0"
         id="stop820" />
      <stop
         style="stop-color:#878a9b;stop-opacity:1"
         offset="1"
         id="stop822" />
    </linearGradient>
    <linearGradient
       inkscape:collect="always"
       xlink:href="#linearGradient824"
       id="linearGradient826"
       x1="60.117603"
       y1="71.928551"
       x2="59.800636"
       y2="40.084057"
       gradientUnits="userSpaceOnUse" />
    <linearGradient
       inkscape:collect="always"
       xlink:href="#linearGradient824"
       id="linearGradient865"
       x1="109.28301"
       y1="40.613224"
       x2="109.53301"
       y2="72.36322"
       gradientUnits="userSpaceOnUse" />
    <linearGradient
       inkscape:collect="always"
       xlink:href="#linearGradient824"
       id="linearGradient875"
       gradientUnits="userSpaceOnUse"
       x1="109.28301"
       y1="40.613224"
       x2="109.53301"
       y2="72.36322"
       gradientTransform="translate(1.4967094,49.20432)" />
    <linearGradient
       inkscape:collect="always"
       xlink:href="#linearGradient824"
       id="linearGradient901"
       gradientUnits="userSpaceOnUse"
       gradientTransform="translate(1.4967094,90.738005)"
       x1="109.28301"
       y1="40.613224"
       x2="109.53301"
       y2="72.36322" />
    <linearGradient
       inkscape:collect="always"
       xlink:href="#linearGradient824"
       id="linearGradient917"
       gradientUnits="userSpaceOnUse"
       x1="60.117603"
       y1="71.928551"
       x2="59.800636"
       y2="40.084057"
       gradientTransform="translate(3.1805074,48.830143)" />
    <linearGradient
       inkscape:collect="always"
       xlink:href="#linearGradient824"
       id="linearGradient923"
       gradientUnits="userSpaceOnUse"
       gradientTransform="translate(2.9934187,93.731424)"
       x1="60.117603"
       y1="71.928551"
       x2="59.800636"
       y2="40.084057" />
  </defs>
  <sodipodi:namedview
     id="base"
     pagecolor="#ffffff"
     bordercolor="#666666"
     borderopacity="1.0"
     inkscape:pageopacity="0.0"
     inkscape:pageshadow="2"
     inkscape:zoom="1"
     inkscape:cx="466.2412"
     inkscape:cy="726.42532"
     inkscape:document-units="mm"
     inkscape:current-layer="layer1"
     showgrid="false"
     inkscape:window-width="1920"
     inkscape:window-height="1013"
     inkscape:window-x="0"
     inkscape:window-y="40"
     inkscape:window-maximized="1" />
  <metadata
     id="metadata5">
    <rdf:RDF>
      <cc:Work
         rdf:about="">
        <dc:format>image/svg+xml</dc:format>
        <dc:type
           rdf:resource="http://purl.org/dc/dcmitype/StillImage" />
      </cc:Work>
    </rdf:RDF>
  </metadata>
  <g
     inkscape:label="Layer 1"
     inkscape:groupmode="layer"
     id="layer1">
    <path
       style="fill:url(#linearGradient826);fill-opacity:1;stroke-width:0.20895377"
       d="m 44.355994,39.959057 h 29.883334 l 1.058333,32 h -32 z"
       id="rect815"
       inkscape:connector-curvature="0"
       sodipodi:nodetypes="ccccc" />
    <path
       sodipodi:nodetypes="ccccc"
       inkscape:connector-curvature="0"
       id="path818"
       d="m 44.355994,76.163029 h 29.883334 l 1.058333,-4.203972 h -32 z"
       style="fill:#444d53;fill-opacity:1;stroke-width:0.07573648" />
    <path
       style="fill:#444d53;fill-opacity:1;stroke-width:0.21009921"
       d="m 93.672595,73.607852 h 30.930915 l 1e-5,-33.469985 H 93.672595 Z"
       id="path855"
       inkscape:connector-curvature="0"
       sodipodi:nodetypes="ccccc" />
    <path
       sodipodi:nodetypes="ccccc"
       inkscape:connector-curvature="0"
       id="path853"
       d="m 94.201761,39.959057 h 29.883329 l 1e-5,32 H 94.201761 Z"
       style="fill:url(#linearGradient865);fill-opacity:1;stroke-width:0.20895377" />
    <path
       sodipodi:nodetypes="ccccc"
       inkscape:connector-curvature="0"
       id="path871"
       d="m 95.169304,122.81217 h 30.930916 l 1e-5,-33.469983 H 95.169304 Z"
       style="fill:#444d53;fill-opacity:1;stroke-width:0.21009921" />
    <path
       style="fill:url(#linearGradient875);fill-opacity:1;stroke-width:0.20895377"
       d="m 95.69847,89.163377 h 29.88333 l 1e-5,32.000003 H 95.69847 Z"
       id="path873"
       inkscape:connector-curvature="0"
       sodipodi:nodetypes="ccccc" />
    <g
       id="g885"
       transform="translate(0.30605501,-1.9643719)">
      <rect
         style="fill:#606971;fill-opacity:1;stroke-width:0.26458332"
         id="rect877"
         width="4.7624998"
         height="15.875"
         x="104.17897"
         y="99.454834"
         ry="0.86915892" />
      <rect
         ry="0.86915892"
         y="98.925667"
         x="103.6498"
         height="15.875"
         width="4.7624998"
         id="rect867"
         style="fill:#e5e7e9;fill-opacity:1;stroke-width:0.26458332" />
      <rect
         ry="0.86915892"
         y="99.454834"
         x="112.25587"
         height="15.875"
         width="4.7624998"
         id="rect879"
         style="fill:#606971;fill-opacity:1;stroke-width:0.26458332" />
      <rect
         style="fill:#e5e7e9;fill-opacity:1;stroke-width:0.26458332"
         id="rect869"
         width="4.7624998"
         height="15.875"
         x="111.72671"
         y="98.925667"
         ry="0.86915892" />
    </g>
    <path
       style="fill:#444d53;fill-opacity:1;stroke-width:0.21009921"
       d="m 95.169304,164.34585 h 30.930916 l 1e-5,-33.46998 H 95.169304 Z"
       id="path887"
       inkscape:connector-curvature="0"
       sodipodi:nodetypes="ccccc" />
    <path
       sodipodi:nodetypes="ccccc"
       inkscape:connector-curvature="0"
       id="path889"
       d="m 95.69847,130.69706 h 29.88333 l 1e-5,32 H 95.69847 Z"
       style="fill:url(#linearGradient901);fill-opacity:1;stroke-width:0.20895377" />
    <path
       sodipodi:nodetypes="ccccc"
       inkscape:connector-curvature="0"
       id="path913"
       d="m 47.536501,88.7892 h 29.883334 l 1.058333,32 h -32 z"
       style="fill:url(#linearGradient917);fill-opacity:1;stroke-width:0.20895377" />
    <path
       style="fill:#444d53;fill-opacity:1;stroke-width:0.07573648"
       d="m 47.536501,124.99317 h 29.883334 l 1.058333,-4.20397 h -32 z"
       id="path915"
       inkscape:connector-curvature="0"
       sodipodi:nodetypes="ccccc" />
    <path
       style="fill:url(#linearGradient923);fill-opacity:1;stroke-width:0.20895377"
       d="m 47.349412,133.69048 h 29.883334 l 1.058333,32 h -32 z"
       id="path919"
       inkscape:connector-curvature="0"
       sodipodi:nodetypes="ccccc" />
    <path
       sodipodi:nodetypes="ccccc"
       inkscape:connector-curvature="0"
       id="path921"
       d="m 47.349412,169.89445 h 29.883334 l 1.058333,-4.20397 h -32 z"
       style="fill:#444d53;fill-opacity:1;stroke-width:0.07573648" />
    <g
       transform="translate(-47.855917,-2.3385504)"
       id="g933">
      <path
         style="fill:#606971;fill-opacity:1;stroke-width:0.26458332"
         d="m 106.10646,99.454834 h 2.49502 c 0.48152,0 0.88717,0.387982 0.86916,0.869156 l -0.52917,14.13669 c -0.018,0.48117 -0.38764,0.86915 -0.86916,0.86915 h -3.02418 c -0.48151,0 -0.90511,-0.38898 -0.86916,-0.86915 l 1.05833,-14.13669 c 0.0359,-0.480167 0.38765,-0.869156 0.86916,-0.869156 z"
         id="rect925"
         inkscape:connector-curvature="0"
         sodipodi:nodetypes="sssssssss" />
      <path
         style="fill:#e5e7e9;fill-opacity:1;stroke-width:0.26458332"
         d="m 105.57729,98.925667 h 2.49502 c 0.48152,0 0.88717,0.387982 0.86916,0.869159 l -0.52917,14.136684 c -0.018,0.48117 -0.38764,0.86916 -0.86916,0.86916 h -3.02418 c -0.48151,0 -0.90511,-0.38899 -0.86916,-0.86916 l 1.05833,-14.136684 c 0.0359,-0.48017 0.38765,-0.869159 0.86916,-0.869159 z"
         id="rect927"
         inkscape:connector-curvature="0"
         sodipodi:nodetypes="sssssssss" />
      <path
         style="fill:#606971;fill-opacity:1;stroke-width:0.26458332"
         d="m 112.59586,99.454834 h 2.49502 c 0.48151,0 0.83321,0.388989 0.86916,0.869156 l 1.05833,14.13669 c 0.0359,0.48017 -0.38765,0.86915 -0.86916,0.86915 h -3.02418 c -0.48152,0 -0.85115,-0.38798 -0.86916,-0.86915 l -0.52917,-14.13669 c -0.018,-0.481174 0.38764,-0.869156 0.86916,-0.869156 z"
         id="rect929"
         inkscape:connector-curvature="0"
         sodipodi:nodetypes="sssssssss" />
      <path
         style="fill:#e5e7e9;fill-opacity:1;stroke-width:0.26458332"
         d="m 112.0667,98.925667 h 2.49502 c 0.48151,0 0.83321,0.388989 0.86916,0.869159 l 1.05833,14.136684 c 0.0359,0.48017 -0.38765,0.86916 -0.86916,0.86916 h -3.02418 c -0.48152,0 -0.85115,-0.38799 -0.86916,-0.86916 l -0.52917,-14.136684 c -0.018,-0.481177 0.38764,-0.869159 0.86916,-0.869159 z"
         id="rect931"
         inkscape:connector-curvature="0"
         sodipodi:nodetypes="sssssssss" />
    </g>
    <g
       id="g945"
       transform="translate(-1.2228361,-1.1771999)">
      <circle
         style="fill:#606971;fill-opacity:1;stroke-width:0.26458332"
         id="circle941"
         cx="112.12756"
         cy="148.13884"
         r="7.0158248" />
      <circle
         r="7.0158248"
         cy="147.60968"
         cx="111.59839"
         id="path939"
         style="fill:#ff5555;fill-opacity:1;stroke-width:0.26458332" />
    </g>
    <path
       style="fill:#606971;fill-opacity:1;stroke-width:0.26458332"
       d="m 69.571493,149.95506 a 7.0158248,7.0158248 0 0 1 -7.015825,7.01583 7.0158248,7.0158248 0 0 1 -7.015825,-7.01583 7.0158248,7.0158248 0 0 1 7.015825,-7.01582 7.0158248,7.0158248 0 0 1 7.015825,7.01582 z"
       id="circle947" />
    <path
       style="fill:#ff5555;fill-opacity:1;stroke-width:0.26458332"
       d="m 69.042318,149.4259 c 3e-6,3.87474 -3.14109,7.01583 -7.015825,7.01583 -3.874735,0 -7.015828,-3.14109 -7.015825,-7.01583 3e-6,-3.87473 3.141094,-6.48665 7.015825,-6.48665 3.874731,0 7.015822,2.61192 7.015825,6.48665 z"
       id="circle949"
       inkscape:connector-curvature="0"
       sodipodi:nodetypes="sssss" />
  </g>
</svg>
