<?xml version="1.0" encoding="UTF-8" standalone="no"?>
<!-- Created with Inkscape (http://www.inkscape.org/) -->

<svg
   xmlns:dc="http://purl.org/dc/elements/1.1/"
   xmlns:cc="http://creativecommons.org/ns#"
   xmlns:rdf="http://www.w3.org/1999/02/22-rdf-syntax-ns#"
   xmlns:svg="http://www.w3.org/2000/svg"
   xmlns="http://www.w3.org/2000/svg"
   xmlns:xlink="http://www.w3.org/1999/xlink"
   xmlns:sodipodi="http://sodipodi.sourceforge.net/DTD/sodipodi-0.dtd"
   xmlns:inkscape="http://www.inkscape.org/namespaces/inkscape"
   width="10.25mm"
   height="128.4993mm"
   viewBox="0 0 10.25 128.49931"
   version="1.1"
   id="svg48736"
   inkscape:version="0.92.4 (5da689c313, 2019-01-14)"
   sodipodi:docname="Vactrolyzer.svg"
   inkscape:export-filename="/home/david/draf.png"
   inkscape:export-xdpi="120"
   inkscape:export-ydpi="120">
  <defs
     id="defs48730">
    <linearGradient
       id="linearGradient8686"
       inkscape:collect="always">
      <stop
         id="stop8682"
         offset="0"
         style="stop-color:#a5a5a5;stop-opacity:1" />
      <stop
         id="stop8684"
         offset="1"
         style="stop-color:#000000;stop-opacity:1" />
    </linearGradient>
    <linearGradient
       inkscape:collect="always"
       id="linearGradient8315">
      <stop
         style="stop-color:#d9d9d9;stop-opacity:0"
         offset="0"
         id="stop8311" />
      <stop
         style="stop-color:#dbdee3;stop-opacity:1"
         offset="1"
         id="stop8313" />
    </linearGradient>
    <linearGradient
       id="linearGradient8309"
       inkscape:collect="always">
      <stop
         id="stop8305"
         offset="0"
         style="stop-color:#a3a3a3;stop-opacity:1" />
      <stop
         id="stop8307"
         offset="1"
         style="stop-color:#dcdcdc;stop-opacity:1" />
    </linearGradient>
    <linearGradient
       inkscape:collect="always"
       xlink:href="#linearGradient8309"
       id="linearGradient1499"
       x1="489.66321"
       y1="41.076954"
       x2="445.56372"
       y2="-82.401566"
       gradientUnits="userSpaceOnUse"
       gradientTransform="matrix(0.80987864,0,0,1,-18.927889,6.8478645e-4)" />
    <linearGradient
       inkscape:collect="always"
       xlink:href="#linearGradient8315"
       id="linearGradient1503"
       gradientUnits="userSpaceOnUse"
       x1="468.94003"
       y1="-4.235374"
       x2="468.9498"
       y2="-87.593216"
       gradientTransform="matrix(1,0,0,0.00643508,-103.16672,-84.018838)" />
    <linearGradient
       inkscape:collect="always"
       xlink:href="#linearGradient8686"
       id="linearGradient3054"
       gradientUnits="userSpaceOnUse"
       gradientTransform="matrix(1,0,0,-0.00643508,-103.16672,43.111856)"
       x1="468.9498"
       y1="-4.235374"
       x2="468.9498"
       y2="-87.593216" />
    <linearGradient
       y2="-123.20355"
       x2="793.11078"
       y1="-151.8844"
       x1="793.11078"
       gradientTransform="matrix(0.06635353,0,0,-0.06635353,312.45793,30.458784)"
       gradientUnits="userSpaceOnUse"
       id="linearGradient1458"
       xlink:href="#linearGradient13900"
       inkscape:collect="always" />
    <linearGradient
       id="linearGradient13900"
       inkscape:collect="always">
      <stop
         id="stop13896"
         offset="0"
         style="stop-color:#cccccc;stop-opacity:1;" />
      <stop
         id="stop13898"
         offset="1"
         style="stop-color:#ececec;stop-opacity:1" />
    </linearGradient>
    <linearGradient
       y2="-123.20355"
       x2="793.11078"
       y1="-151.8844"
       x1="793.11078"
       gradientTransform="matrix(0.06133664,0,0,0.06133664,316.44007,46.260274)"
       gradientUnits="userSpaceOnUse"
       id="linearGradient1460"
       xlink:href="#linearGradient13900"
       inkscape:collect="always" />
    <linearGradient
       y2="-123.20355"
       x2="793.11078"
       y1="-151.8844"
       x1="793.11078"
       gradientTransform="matrix(0.06133664,0,0,-0.06133664,316.44007,31.079696)"
       gradientUnits="userSpaceOnUse"
       id="linearGradient1462"
       xlink:href="#linearGradient13900"
       inkscape:collect="always" />
    <linearGradient
       y2="-119.35546"
       x2="546.96411"
       y1="-114.06799"
       x1="546.96411"
       gradientUnits="userSpaceOnUse"
       id="linearGradient1468"
       xlink:href="#linearGradient14001"
       inkscape:collect="always" />
    <linearGradient
       id="linearGradient14001"
       inkscape:collect="always">
      <stop
         id="stop13997"
         offset="0"
         style="stop-color:#8d8d8d;stop-opacity:1" />
      <stop
         id="stop13999"
         offset="1"
         style="stop-color:#333333;stop-opacity:1" />
    </linearGradient>
    <linearGradient
       y2="466.45105"
       x2="93.682091"
       y1="463.18668"
       x1="93.682091"
       gradientUnits="userSpaceOnUse"
       id="linearGradient1470"
       xlink:href="#linearGradient13993"
       inkscape:collect="always" />
    <linearGradient
       id="linearGradient13993"
       inkscape:collect="always">
      <stop
         id="stop13989"
         offset="0"
         style="stop-color:#666666;stop-opacity:1" />
      <stop
         id="stop13991"
         offset="1"
         style="stop-color:#b3b3b3;stop-opacity:1" />
    </linearGradient>
    <linearGradient
       inkscape:collect="always"
       xlink:href="#linearGradient14001"
       id="linearGradient2793"
       gradientUnits="userSpaceOnUse"
       x1="546.96411"
       y1="-114.06799"
       x2="546.96411"
       y2="-119.35546" />
    <linearGradient
       inkscape:collect="always"
       xlink:href="#linearGradient14001"
       id="linearGradient2795"
       gradientUnits="userSpaceOnUse"
       x1="546.96411"
       y1="-114.06799"
       x2="546.96411"
       y2="-119.35546" />
  </defs>
  <sodipodi:namedview
     id="base"
     pagecolor="#ffffff"
     bordercolor="#666666"
     borderopacity="1.0"
     inkscape:pageopacity="0.0"
     inkscape:pageshadow="2"
     inkscape:zoom="2"
     inkscape:cx="7.7500073"
     inkscape:cy="284.45651"
     inkscape:document-units="mm"
     inkscape:current-layer="layer1"
     showgrid="false"
     fit-margin-top="0"
     fit-margin-left="0"
     fit-margin-right="0"
     fit-margin-bottom="0"
     inkscape:snap-bbox="true"
     inkscape:bbox-nodes="true"
     inkscape:window-width="1920"
     inkscape:window-height="1013"
     inkscape:window-x="0"
     inkscape:window-y="40"
     inkscape:window-maximized="1"
     inkscape:snap-page="true"
     inkscape:snap-global="true"
     showguides="true"
     inkscape:guide-bbox="true"
     borderlayer="true"
     units="mm">
    <inkscape:grid
       type="xygrid"
       id="grid2513"
       originx="-9.9999985e-06"
       originy="-8.2611936e-06" />
    <sodipodi:guide
       position="27.67545,124.64563"
       orientation="0,1"
       id="guide1358"
       inkscape:locked="false" />
    <sodipodi:guide
       position="24.79494,119.70472"
       orientation="0,1"
       id="guide1360"
       inkscape:locked="false" />
    <sodipodi:guide
       position="11.62099,118.91952"
       orientation="0,1"
       id="guide1362"
       inkscape:locked="false" />
    <sodipodi:guide
       position="11.62099,117.34339"
       orientation="0,1"
       id="guide1364"
       inkscape:locked="false" />
    <sodipodi:guide
       position="22.60466,2.4960326"
       orientation="0,21.135912"
       id="guide1426"
       inkscape:locked="false" />
    <sodipodi:guide
       position="28.19687,7.6633509"
       orientation="0,-21.135912"
       id="guide1432"
       inkscape:locked="false" />
  </sodipodi:namedview>
  <metadata
     id="metadata48733">
    <rdf:RDF>
      <cc:Work
         rdf:about="">
        <dc:format>image/svg+xml</dc:format>
        <dc:type
           rdf:resource="http://purl.org/dc/dcmitype/StillImage" />
        <dc:title></dc:title>
      </cc:Work>
    </rdf:RDF>
  </metadata>
  <g
     inkscape:label="Layer 1"
     inkscape:groupmode="layer"
     id="layer1"
     transform="translate(-339.72501,84.749652)"
     style="display:inline">
    <path
       inkscape:connector-curvature="0"
       style="fill:#ffd714;fill-opacity:1;stroke:none;stroke-width:0.35277775"
       d=""
       id="path47866" />
    <path
       inkscape:connector-curvature="0"
       style="fill:#ffd714;fill-opacity:1;stroke:none;stroke-width:0.35277775"
       d=""
       id="path47814" />
    <path
       inkscape:connector-curvature="0"
       style="fill:#ffd714;fill-opacity:1;stroke:none;stroke-width:0.35277775"
       d=""
       id="path47770" />
    <path
       inkscape:connector-curvature="0"
       style="fill:#ffd714;fill-opacity:1;stroke:none;stroke-width:0.35277775"
       d=""
       id="path47726" />
    <path
       inkscape:connector-curvature="0"
       style="fill:#ffd714;fill-opacity:1;stroke:none;stroke-width:0.35277775"
       d=""
       id="path47690" />
    <path
       inkscape:connector-curvature="0"
       style="fill:#ffd714;fill-opacity:1;stroke:none;stroke-width:0.35277775"
       d=""
       id="path47662" />
    <path
       inkscape:connector-curvature="0"
       style="fill:#ffd714;fill-opacity:1;stroke:none;stroke-width:0.35277775"
       d=""
       id="path47630" />
    <path
       inkscape:connector-curvature="0"
       style="fill:url(#linearGradient1499);fill-opacity:1;fill-rule:nonzero;stroke:none;stroke-width:0.31747618"
       d="M 339.91259,-84.563615 V 43.562412 l 10.06242,0 V -84.563615 Z"
       id="path1168"
       sodipodi:nodetypes="ccccc" />
    <g
       aria-label="V"
       style="font-style:normal;font-variant:normal;font-weight:normal;font-stretch:normal;font-size:8.46666622px;line-height:1.25;font-family:B612;-inkscape-font-specification:B612;letter-spacing:0px;word-spacing:0px;fill:#000000;fill-opacity:1;stroke:none;stroke-width:0.26458332"
       id="text2274">
      <path
         d="m 347.15365,-76.043261 -1.44639,4.572 -0.10231,0.807861 -1.37583,-0.105833 -1.68275,-5.245806 1.13594,-0.119944 0.89253,2.913944 0.33161,1.552222 0.24342,-1.552222 0.87489,-2.822222 z"
         style="font-style:normal;font-variant:normal;font-weight:bold;font-stretch:normal;font-size:7.05555534px;font-family:B612;-inkscape-font-specification:'B612 Bold';stroke-width:0.26458332"
         id="path2316" />
    </g>
    <path
       inkscape:connector-curvature="0"
       id="path40444"
       d="m 350.16105,-84.749652 h -10.43604 v 128.4993 l 10.43604,1.74e-4 z m -0.18604,128.312064 -10.06259,-1.74e-4 V -84.563615 h 10.06259 z"
       style="fill:#515558;fill-opacity:1;fill-rule:nonzero;stroke:none;stroke-width:0.35277775"
       sodipodi:nodetypes="cccccccccc" />
    <path
       inkscape:connector-curvature="0"
       style="fill:url(#linearGradient1503);fill-opacity:1;fill-rule:nonzero;stroke:none;stroke-width:0.02829946"
       d="m 339.91259,-84.563615 v 0.82579 h 40.62638 v -0.82579 z"
       id="path1501"
       sodipodi:nodetypes="ccccc" />
    <path
       inkscape:connector-curvature="0"
       style="fill:url(#linearGradient3054);fill-opacity:1;fill-rule:nonzero;stroke:none;stroke-width:0.02829946"
       d="m 339.91259,42.830675 v 0.731737 l 10.24846,0.18741 v -0.731737 z"
       id="path3052"
       sodipodi:nodetypes="ccccc" />
    <g
       style="display:inline"
       id="g1456"
       transform="matrix(1.6054896,0,0,1.6054896,-241.35604,-28.70592)">
      <path
         style="opacity:1;fill:url(#linearGradient1458);fill-opacity:1;stroke:none;stroke-width:0.0303705;stroke-linecap:round;stroke-linejoin:round;stroke-miterlimit:4;stroke-dasharray:none;stroke-opacity:1"
         d="m 363.32707,40.332228 c -0.14857,0 -0.26833,-0.119763 -0.26833,-0.268336 v -1.394224 -1.393667 c 0,-0.148575 0.11976,-0.268335 0.26833,-0.268335 h 3.59793 c 0.14858,0 0.26833,0.11976 0.26833,0.268335 v 1.393667 1.394224 c 0,0.148573 -0.11975,0.268336 -0.26833,0.268336 z"
         id="path1436"
         inkscape:connector-curvature="0" />
      <path
         style="opacity:1;fill:url(#linearGradient1460);fill-opacity:1;stroke:none;stroke-width:0.02807423;stroke-linecap:round;stroke-linejoin:round;stroke-miterlimit:4;stroke-dasharray:none;stroke-opacity:1"
         d="m 363.46288,37.133447 c -0.13734,0 -0.24798,0.110644 -0.24798,0.247982 v 1.288558 h 3.82191 v -1.288558 c 0,-0.137338 -0.11063,-0.247982 -0.24798,-0.247982 z"
         id="path1438"
         inkscape:connector-curvature="0"
         sodipodi:nodetypes="ssccsss" />
      <g
         id="g1444"
         transform="matrix(0.23182354,0,0,0.23182354,237.92646,65.907238)">
        <path
           d="m 547.88393,-119.04015 h -1.48166 q -0.0847,-1.2065 -1.61925,-1.2065 -0.61384,0 -0.97367,0.26458 -0.35983,0.254 -0.35983,0.68792 0,0.42333 0.30691,0.635 0.30692,0.20108 1.15359,0.37042 l 1.2065,0.23283 q 1.06891,0.21167 1.55575,0.71967 0.48683,0.49741 0.48683,1.40758 0,1.17475 -0.83608,1.8415 -0.83609,0.65617 -2.32834,0.65617 -1.48166,0 -2.30716,-0.65617 -0.81492,-0.65617 -0.889,-1.89442 h 1.54516 q 0.0423,0.62442 0.48684,0.9525 0.4445,0.32809 1.24883,0.32809 0.71967,0 1.13242,-0.27517 0.42333,-0.27517 0.42333,-0.762 0,-0.46567 -0.32808,-0.71967 -0.32809,-0.254 -1.12184,-0.40216 l -1.0795,-0.21167 q -1.17475,-0.22225 -1.67216,-0.6985 -0.49742,-0.47625 -0.49742,-1.37583 0,-1.13242 0.762,-1.74625 0.77258,-0.62442 2.159,-0.62442 0.40217,0 0.77258,0.0529 0.381,0.0529 0.80434,0.22225 0.42333,0.15875 0.73025,0.42333 0.30691,0.254 0.508,0.71967 0.21166,0.45508 0.21166,1.05833 z"
           style="font-style:normal;font-variant:normal;font-weight:600;font-stretch:normal;font-size:10.58333302px;line-height:1.25;font-family:FreeSans;-inkscape-font-specification:'FreeSans, Semi-Bold';font-variant-ligatures:normal;font-variant-caps:normal;font-variant-numeric:normal;font-feature-settings:normal;text-align:start;letter-spacing:0px;word-spacing:0px;writing-mode:lr-tb;text-anchor:start;fill:#000000;fill-opacity:1;stroke:none;stroke-width:0.26458332"
           id="path1440"
           inkscape:connector-curvature="0" />
        <path
           d="m 550.36525,-116.25673 v 2.58233 h -1.5875 v -7.71525 h 1.5875 v 3.38667 l 3.01625,-3.38667 h 1.87325 l -3.07975,3.32317 3.40783,4.39208 h -1.89441 l -2.52942,-3.40783 z"
           style="font-style:normal;font-variant:normal;font-weight:600;font-stretch:normal;font-size:10.58333302px;line-height:1.25;font-family:FreeSans;-inkscape-font-specification:'FreeSans, Semi-Bold';font-variant-ligatures:normal;font-variant-caps:normal;font-variant-numeric:normal;font-feature-settings:normal;text-align:start;letter-spacing:0px;word-spacing:0px;writing-mode:lr-tb;text-anchor:start;fill:#000000;fill-opacity:1;stroke:none;stroke-width:0.26458332"
           id="path1442"
           inkscape:connector-curvature="0" />
      </g>
      <path
         sodipodi:nodetypes="ssccsss"
         inkscape:connector-curvature="0"
         id="path1446"
         d="m 363.46288,40.20652 c -0.13734,0 -0.24798,-0.110638 -0.24798,-0.247981 v -1.288552 h 3.82191 v 1.288552 c 0,0.137343 -0.11063,0.247981 -0.24798,0.247981 z"
         style="opacity:1;fill:url(#linearGradient1462);fill-opacity:1;stroke:none;stroke-width:0.02807423;stroke-linecap:round;stroke-linejoin:round;stroke-miterlimit:4;stroke-dasharray:none;stroke-opacity:1" />
      <g
         transform="matrix(0.23182354,0,0,0.23182354,237.92646,65.907238)"
         id="g1452"
         style="fill:url(#linearGradient1468);fill-opacity:1">
        <path
           inkscape:connector-curvature="0"
           id="path1448"
           style="font-style:normal;font-variant:normal;font-weight:600;font-stretch:normal;font-size:10.58333302px;line-height:1.25;font-family:FreeSans;-inkscape-font-specification:'FreeSans, Semi-Bold';font-variant-ligatures:normal;font-variant-caps:normal;font-variant-numeric:normal;font-feature-settings:normal;text-align:start;letter-spacing:0px;word-spacing:0px;writing-mode:lr-tb;text-anchor:start;fill:url(#linearGradient2793);fill-opacity:1;stroke:none;stroke-width:0.26458332"
           d="m 547.88393,-119.04015 h -1.48166 q -0.0847,-1.2065 -1.61925,-1.2065 -0.61384,0 -0.97367,0.26458 -0.35983,0.254 -0.35983,0.68792 0,0.42333 0.30691,0.635 0.30692,0.20108 1.15359,0.37042 l 1.2065,0.23283 q 1.06891,0.21167 1.55575,0.71967 0.48683,0.49741 0.48683,1.40758 0,1.17475 -0.83608,1.8415 -0.83609,0.65617 -2.32834,0.65617 -1.48166,0 -2.30716,-0.65617 -0.81492,-0.65617 -0.889,-1.89442 h 1.54516 q 0.0423,0.62442 0.48684,0.9525 0.4445,0.32809 1.24883,0.32809 0.71967,0 1.13242,-0.27517 0.42333,-0.27517 0.42333,-0.762 0,-0.46567 -0.32808,-0.71967 -0.32809,-0.254 -1.12184,-0.40216 l -1.0795,-0.21167 q -1.17475,-0.22225 -1.67216,-0.6985 -0.49742,-0.47625 -0.49742,-1.37583 0,-1.13242 0.762,-1.74625 0.77258,-0.62442 2.159,-0.62442 0.40217,0 0.77258,0.0529 0.381,0.0529 0.80434,0.22225 0.42333,0.15875 0.73025,0.42333 0.30691,0.254 0.508,0.71967 0.21166,0.45508 0.21166,1.05833 z" />
        <path
           inkscape:connector-curvature="0"
           id="path1450"
           style="font-style:normal;font-variant:normal;font-weight:600;font-stretch:normal;font-size:10.58333302px;line-height:1.25;font-family:FreeSans;-inkscape-font-specification:'FreeSans, Semi-Bold';font-variant-ligatures:normal;font-variant-caps:normal;font-variant-numeric:normal;font-feature-settings:normal;text-align:start;letter-spacing:0px;word-spacing:0px;writing-mode:lr-tb;text-anchor:start;fill:url(#linearGradient2795);fill-opacity:1;stroke:none;stroke-width:0.26458332"
           d="m 550.36525,-116.25673 v 2.58233 h -1.5875 v -7.71525 h 1.5875 v 3.38667 l 3.01625,-3.38667 h 1.87325 l -3.07975,3.32317 3.40783,4.39208 h -1.89441 l -2.52942,-3.40783 z" />
      </g>
      <path
         style="font-style:normal;font-variant:normal;font-weight:600;font-stretch:normal;font-size:10.58333302px;line-height:1.25;font-family:FreeSans;-inkscape-font-specification:'FreeSans, Semi-Bold';font-variant-ligatures:normal;font-variant-caps:normal;font-variant-numeric:normal;font-feature-settings:normal;text-align:start;letter-spacing:0px;word-spacing:0px;writing-mode:lr-tb;text-anchor:start;fill:url(#linearGradient1470);fill-opacity:1;stroke:none;stroke-width:0.23182352"
         d="m 92.644531,462.94141 c -0.809827,0 -1.441277,0.18213 -1.892578,0.54687 -0.445077,0.35855 -0.666015,0.86783 -0.666015,1.5293 0,0.52546 0.145001,0.92884 0.435546,1.20703 0.08644,0.0828 0.196935,0.15702 0.31836,0.22656 h 4.089844 c -0.283116,-0.2161 -0.67233,-0.37766 -1.181641,-0.47851 l -1.056641,-0.20313 c -0.49469,-0.0989 -0.83257,-0.20675 -1.011718,-0.32422 -0.179402,-0.12363 -0.267579,-0.30936 -0.267579,-0.55664 0,-0.25347 0.104313,-0.45515 0.314453,-0.60351 0.210193,-0.15456 0.494965,-0.23047 0.853516,-0.23047 0.896454,0 1.368583,0.35189 1.417969,1.05664 h 1.298828 c 0,-0.35237 -0.06183,-0.66191 -0.185547,-0.92774 -0.117568,-0.27201 -0.266163,-0.4825 -0.445312,-0.63086 -0.179377,-0.15455 -0.393444,-0.27836 -0.640625,-0.37109 -0.247358,-0.0989 -0.48259,-0.16247 -0.705079,-0.19336 -0.216439,-0.0309 -0.440946,-0.0469 -0.675781,-0.0469 z m 3.435547,0.11132 v 3.39844 h 3.353516 l -0.376953,-0.48633 2.697269,-2.91211 h -1.64063 l -2.642577,2.9668 v -2.9668 z"
         transform="matrix(0.26458333,0,0,0.26458333,339.725,-84.74965)"
         id="path1454"
         inkscape:connector-curvature="0" />
    </g>
    <text
       xml:space="preserve"
       style="font-style:normal;font-variant:normal;font-weight:bold;font-stretch:normal;font-size:4.23333311px;line-height:1.25;font-family:B612;-inkscape-font-specification:'B612 Bold';letter-spacing:0px;word-spacing:0px;fill:#000000;fill-opacity:1;stroke:none;stroke-width:0.26458332;"
       x="313.25244"
       y="-32.663082"
       id="text2278"><tspan
         sodipodi:role="line"
         id="tspan2276"
         x="313.25244"
         y="-28.771639"
         style="stroke-width:0.26458332;-inkscape-font-specification:'B612 Bold';font-family:B612;font-weight:bold;font-style:normal;font-stretch:normal;font-variant:normal;" /></text>
    <rect
       style="display:inline;fill:#666666;fill-opacity:0.97510376;stroke:none;stroke-width:0.89453411;stroke-linecap:square;stroke-linejoin:miter;stroke-miterlimit:4;stroke-dasharray:none;stroke-opacity:1"
       id="rect1883"
       width="8.589426"
       height="13.45639"
       x="340.5553"
       y="-45.560574"
       ry="1.4690381" />
    <path
       style="color:#000000;font-style:normal;font-variant:normal;font-weight:normal;font-stretch:normal;font-size:medium;line-height:normal;font-family:sans-serif;font-variant-ligatures:normal;font-variant-position:normal;font-variant-caps:normal;font-variant-numeric:normal;font-variant-alternates:normal;font-feature-settings:normal;text-indent:0;text-align:start;text-decoration:none;text-decoration-line:none;text-decoration-style:solid;text-decoration-color:#000000;letter-spacing:normal;word-spacing:normal;text-transform:none;writing-mode:lr-tb;direction:ltr;text-orientation:mixed;dominant-baseline:auto;baseline-shift:baseline;text-anchor:start;white-space:normal;shape-padding:0;clip-rule:nonzero;display:inline;overflow:visible;visibility:visible;opacity:1;isolation:auto;mix-blend-mode:normal;color-interpolation:sRGB;color-interpolation-filters:linearRGB;solid-color:#000000;solid-opacity:1;vector-effect:none;fill:#686868;fill-opacity:1;fill-rule:nonzero;stroke:none;stroke-width:0.4261907;stroke-linecap:butt;stroke-linejoin:miter;stroke-miterlimit:4;stroke-dasharray:none;stroke-dashoffset:0;stroke-opacity:1;color-rendering:auto;image-rendering:auto;shape-rendering:auto;text-rendering:auto;enable-background:accumulate"
       d="m 344.47205,-60.169737 v 21.59409 h 0.75592 v -21.59409 z"
       id="path2288"
       inkscape:connector-curvature="0" />
    <g
       aria-label="OUT"
       style="font-style:normal;font-variant:normal;font-weight:normal;font-stretch:normal;font-size:4.23333311px;line-height:1.25;font-family:B612;-inkscape-font-specification:B612;letter-spacing:0px;word-spacing:0px;fill:#ffffff;fill-opacity:1;stroke:none;stroke-width:0.26458332"
       id="text2286">
      <path
         d="m 342.51197,-41.937112 q -0.29457,0 -0.52916,-0.102306 -0.2346,-0.102305 -0.39864,-0.282222 -0.16404,-0.18168 -0.25224,-0.428625 -0.0864,-0.248708 -0.0864,-0.53975 0,-0.291042 0.0847,-0.537986 0.0847,-0.248708 0.24518,-0.428625 0.16228,-0.18168 0.39864,-0.283986 0.23636,-0.102306 0.53798,-0.102306 0.29457,0 0.52917,0.102306 0.2346,0.102306 0.39687,0.283986 0.16405,0.179917 0.25048,0.428625 0.0882,0.246944 0.0882,0.537986 0,0.291042 -0.0847,0.53975 -0.0847,0.246945 -0.24694,0.428625 -0.16051,0.179917 -0.39688,0.282222 -0.23459,0.102306 -0.53622,0.102306 z m 0.64911,-1.30175 q 0,-0.186972 -0.0353,-0.361597 -0.0353,-0.174625 -0.11466,-0.308681 -0.0794,-0.134055 -0.20461,-0.215194 -0.12523,-0.08114 -0.30515,-0.08114 -0.16933,0 -0.29104,0.07232 -0.12171,0.07056 -0.19932,0.1905 -0.0776,0.118181 -0.11465,0.273403 -0.0353,0.155222 -0.0353,0.321028 0,0.1905 0.0353,0.366889 0.037,0.174625 0.11641,0.310444 0.0794,0.134056 0.20461,0.215195 0.12524,0.08114 0.30339,0.08114 0.16933,0 0.28928,-0.07232 0.12171,-0.07408 0.19932,-0.194028 0.0794,-0.121708 0.11465,-0.27693 0.037,-0.155223 0.037,-0.321028 z"
         style="font-style:normal;font-variant:normal;font-weight:bold;font-stretch:normal;font-size:3.52777767px;font-family:B612;-inkscape-font-specification:'B612 Bold';fill:#ffffff;fill-opacity:1;stroke-width:0.26458332"
         id="path2304" />
      <path
         d="m 346.16598,-44.612931 v 1.703916 q 0,0.245181 -0.0794,0.428625 -0.0776,0.181681 -0.21696,0.303389 -0.13758,0.119944 -0.32631,0.179917 -0.18698,0.05997 -0.4057,0.05997 -0.23636,0 -0.4198,-0.07585 -0.18169,-0.07585 -0.30692,-0.215195 -0.12347,-0.139347 -0.18874,-0.333375 -0.0653,-0.195791 -0.0653,-0.432153 v -1.201208 l -0.0582,-0.407458 0.67028,-0.05645 v 1.696861 q 0,0.142875 0.03,0.255764 0.0317,0.112889 0.0847,0.1905 0.0529,0.07761 0.12171,0.118181 0.0706,0.04057 0.14817,0.04057 0.1852,0 0.2928,-0.130527 0.10936,-0.130528 0.10936,-0.38982 v -1.735666 z"
         style="font-style:normal;font-variant:normal;font-weight:bold;font-stretch:normal;font-size:3.52777767px;font-family:B612;-inkscape-font-specification:'B612 Bold';fill:#ffffff;fill-opacity:1;stroke-width:0.26458332"
         id="path2306" />
      <path
         d="m 347.14747,-41.967098 v -2.243667 h -0.69497 v -0.402166 h 2.00201 v 0.402166 h -0.68791 v 2.243667 z"
         style="font-style:normal;font-variant:normal;font-weight:bold;font-stretch:normal;font-size:3.52777767px;font-family:B612;-inkscape-font-specification:'B612 Bold';fill:#ffffff;fill-opacity:1;stroke-width:0.26458332"
         id="path2308" />
    </g>
    <g
       aria-label="IN"
       style="font-style:normal;font-variant:normal;font-weight:normal;font-stretch:normal;font-size:4.23333311px;line-height:1.25;font-family:B612;-inkscape-font-specification:B612;letter-spacing:0px;word-spacing:0px;fill:#000000;fill-opacity:1;stroke:none;stroke-width:0.26458332"
       id="text2282">
      <path
         d="m 343.27965,-61.527901 v -2.227791 l -0.0582,-0.407459 0.67909,-0.05468 v 2.68993 z"
         style="font-style:normal;font-variant:normal;font-weight:bold;font-stretch:normal;font-size:3.52777767px;font-family:B612;-inkscape-font-specification:'B612 Bold';stroke-width:0.26458332"
         id="path2311" />
      <path
         d="m 346.47858,-64.221359 v 2.693458 h -0.55739 l -0.73731,-1.234722 -0.26105,-0.596194 -0.0106,0.0018 0.067,0.610305 v 1.218847 h -0.60325 v -2.227791 l -0.0582,-0.407459 0.62795,-0.05292 0.74965,1.259416 0.26282,0.636764 0.0106,-0.0018 -0.0847,-0.645583 v -1.194153 z"
         style="font-style:normal;font-variant:normal;font-weight:bold;font-stretch:normal;font-size:3.52777767px;font-family:B612;-inkscape-font-specification:'B612 Bold';stroke-width:0.26458332"
         id="path2313" />
    </g>
    <rect
       ry="1.4690381"
       y="-7.4605732"
       x="340.5553"
       height="13.45639"
       width="8.589426"
       id="rect2319"
       style="display:inline;fill:#666666;fill-opacity:0.97510376;stroke:none;stroke-width:0.89453411;stroke-linecap:square;stroke-linejoin:miter;stroke-miterlimit:4;stroke-dasharray:none;stroke-opacity:1" />
    <path
       inkscape:connector-curvature="0"
       id="path2321"
       d="m 344.47205,-22.069737 v 21.59409 h 0.75592 v -21.59409 z"
       style="color:#000000;font-style:normal;font-variant:normal;font-weight:normal;font-stretch:normal;font-size:medium;line-height:normal;font-family:sans-serif;font-variant-ligatures:normal;font-variant-position:normal;font-variant-caps:normal;font-variant-numeric:normal;font-variant-alternates:normal;font-feature-settings:normal;text-indent:0;text-align:start;text-decoration:none;text-decoration-line:none;text-decoration-style:solid;text-decoration-color:#000000;letter-spacing:normal;word-spacing:normal;text-transform:none;writing-mode:lr-tb;direction:ltr;text-orientation:mixed;dominant-baseline:auto;baseline-shift:baseline;text-anchor:start;white-space:normal;shape-padding:0;clip-rule:nonzero;display:inline;overflow:visible;visibility:visible;opacity:1;isolation:auto;mix-blend-mode:normal;color-interpolation:sRGB;color-interpolation-filters:linearRGB;solid-color:#000000;solid-opacity:1;vector-effect:none;fill:#686868;fill-opacity:1;fill-rule:nonzero;stroke:none;stroke-width:0.4261907;stroke-linecap:butt;stroke-linejoin:miter;stroke-miterlimit:4;stroke-dasharray:none;stroke-dashoffset:0;stroke-opacity:1;color-rendering:auto;image-rendering:auto;shape-rendering:auto;text-rendering:auto;enable-background:accumulate" />
    <g
       id="g2329"
       style="font-style:normal;font-variant:normal;font-weight:normal;font-stretch:normal;font-size:4.23333311px;line-height:1.25;font-family:B612;-inkscape-font-specification:B612;letter-spacing:0px;word-spacing:0px;fill:#ffffff;fill-opacity:1;stroke:none;stroke-width:0.26458332"
       aria-label="OUT"
       transform="translate(0,38.1)">
      <path
         id="path2323"
         style="font-style:normal;font-variant:normal;font-weight:bold;font-stretch:normal;font-size:3.52777767px;font-family:B612;-inkscape-font-specification:'B612 Bold';fill:#ffffff;fill-opacity:1;stroke-width:0.26458332"
         d="m 342.51197,-41.937112 q -0.29457,0 -0.52916,-0.102306 -0.2346,-0.102305 -0.39864,-0.282222 -0.16404,-0.18168 -0.25224,-0.428625 -0.0864,-0.248708 -0.0864,-0.53975 0,-0.291042 0.0847,-0.537986 0.0847,-0.248708 0.24518,-0.428625 0.16228,-0.18168 0.39864,-0.283986 0.23636,-0.102306 0.53798,-0.102306 0.29457,0 0.52917,0.102306 0.2346,0.102306 0.39687,0.283986 0.16405,0.179917 0.25048,0.428625 0.0882,0.246944 0.0882,0.537986 0,0.291042 -0.0847,0.53975 -0.0847,0.246945 -0.24694,0.428625 -0.16051,0.179917 -0.39688,0.282222 -0.23459,0.102306 -0.53622,0.102306 z m 0.64911,-1.30175 q 0,-0.186972 -0.0353,-0.361597 -0.0353,-0.174625 -0.11466,-0.308681 -0.0794,-0.134055 -0.20461,-0.215194 -0.12523,-0.08114 -0.30515,-0.08114 -0.16933,0 -0.29104,0.07232 -0.12171,0.07056 -0.19932,0.1905 -0.0776,0.118181 -0.11465,0.273403 -0.0353,0.155222 -0.0353,0.321028 0,0.1905 0.0353,0.366889 0.037,0.174625 0.11641,0.310444 0.0794,0.134056 0.20461,0.215195 0.12524,0.08114 0.30339,0.08114 0.16933,0 0.28928,-0.07232 0.12171,-0.07408 0.19932,-0.194028 0.0794,-0.121708 0.11465,-0.27693 0.037,-0.155223 0.037,-0.321028 z"
         inkscape:connector-curvature="0" />
      <path
         id="path2325"
         style="font-style:normal;font-variant:normal;font-weight:bold;font-stretch:normal;font-size:3.52777767px;font-family:B612;-inkscape-font-specification:'B612 Bold';fill:#ffffff;fill-opacity:1;stroke-width:0.26458332"
         d="m 346.16598,-44.612931 v 1.703916 q 0,0.245181 -0.0794,0.428625 -0.0776,0.181681 -0.21696,0.303389 -0.13758,0.119944 -0.32631,0.179917 -0.18698,0.05997 -0.4057,0.05997 -0.23636,0 -0.4198,-0.07585 -0.18169,-0.07585 -0.30692,-0.215195 -0.12347,-0.139347 -0.18874,-0.333375 -0.0653,-0.195791 -0.0653,-0.432153 v -1.201208 l -0.0582,-0.407458 0.67028,-0.05645 v 1.696861 q 0,0.142875 0.03,0.255764 0.0317,0.112889 0.0847,0.1905 0.0529,0.07761 0.12171,0.118181 0.0706,0.04057 0.14817,0.04057 0.1852,0 0.2928,-0.130527 0.10936,-0.130528 0.10936,-0.38982 v -1.735666 z"
         inkscape:connector-curvature="0" />
      <path
         id="path2327"
         style="font-style:normal;font-variant:normal;font-weight:bold;font-stretch:normal;font-size:3.52777767px;font-family:B612;-inkscape-font-specification:'B612 Bold';fill:#ffffff;fill-opacity:1;stroke-width:0.26458332"
         d="m 347.14747,-41.967098 v -2.243667 h -0.69497 v -0.402166 h 2.00201 v 0.402166 h -0.68791 v 2.243667 z"
         inkscape:connector-curvature="0" />
    </g>
    <g
       id="g2335"
       style="font-style:normal;font-variant:normal;font-weight:normal;font-stretch:normal;font-size:4.23333311px;line-height:1.25;font-family:B612;-inkscape-font-specification:B612;letter-spacing:0px;word-spacing:0px;fill:#000000;fill-opacity:1;stroke:none;stroke-width:0.26458332"
       aria-label="IN"
       transform="translate(0,38.1)">
      <path
         id="path2331"
         style="font-style:normal;font-variant:normal;font-weight:bold;font-stretch:normal;font-size:3.52777767px;font-family:B612;-inkscape-font-specification:'B612 Bold';stroke-width:0.26458332"
         d="m 343.27965,-61.527901 v -2.227791 l -0.0582,-0.407459 0.67909,-0.05468 v 2.68993 z"
         inkscape:connector-curvature="0" />
      <path
         id="path2333"
         style="font-style:normal;font-variant:normal;font-weight:bold;font-stretch:normal;font-size:3.52777767px;font-family:B612;-inkscape-font-specification:'B612 Bold';stroke-width:0.26458332"
         d="m 346.47858,-64.221359 v 2.693458 h -0.55739 l -0.73731,-1.234722 -0.26105,-0.596194 -0.0106,0.0018 0.067,0.610305 v 1.218847 h -0.60325 v -2.227791 l -0.0582,-0.407459 0.62795,-0.05292 0.74965,1.259416 0.26282,0.636764 0.0106,-0.0018 -0.0847,-0.645583 v -1.194153 z"
         inkscape:connector-curvature="0" />
    </g>
  </g>
  <g
     inkscape:groupmode="layer"
     id="layer6"
     inkscape:label="widgets"
     style="display:none"
     transform="translate(-9.9999996e-6,2e-6)">
    <rect
       style="opacity:1;vector-effect:none;fill:#ff00ff;fill-opacity:0.50196078;fill-rule:evenodd;stroke:none;stroke-width:0.04378174;stroke-linecap:round;stroke-linejoin:miter;stroke-miterlimit:4;stroke-dasharray:none;stroke-dashoffset:0;stroke-opacity:1;paint-order:normal"
       id="rect49271"
       width="2.1759191"
       height="2.1772995"
       x="12.524985"
       y="54.577202" />
    <rect
       y="54.577202"
       x="35.725647"
       height="2.1772995"
       width="2.1759191"
       id="rect49816"
       style="opacity:1;vector-effect:none;fill:#ff00ff;fill-opacity:0.50196078;fill-rule:evenodd;stroke:none;stroke-width:0.04378174;stroke-linecap:round;stroke-linejoin:miter;stroke-miterlimit:4;stroke-dasharray:none;stroke-dashoffset:0;stroke-opacity:1;paint-order:normal" />
    <rect
       style="opacity:1;vector-effect:none;fill:#ff00ff;fill-opacity:0.50196078;fill-rule:evenodd;stroke:none;stroke-width:0.04378174;stroke-linecap:round;stroke-linejoin:miter;stroke-miterlimit:4;stroke-dasharray:none;stroke-dashoffset:0;stroke-opacity:1;paint-order:normal"
       id="rect49818"
       width="2.1759191"
       height="2.1772995"
       x="12.524985"
       y="69.158226" />
    <rect
       y="69.158226"
       x="35.725647"
       height="2.1772995"
       width="2.1759191"
       id="rect49820"
       style="opacity:1;vector-effect:none;fill:#ff00ff;fill-opacity:0.50196078;fill-rule:evenodd;stroke:none;stroke-width:0.04378174;stroke-linecap:round;stroke-linejoin:miter;stroke-miterlimit:4;stroke-dasharray:none;stroke-dashoffset:0;stroke-opacity:1;paint-order:normal" />
    <rect
       style="opacity:1;vector-effect:none;fill:#ff00ff;fill-opacity:0.50196078;fill-rule:evenodd;stroke:none;stroke-width:0.04378174;stroke-linecap:round;stroke-linejoin:miter;stroke-miterlimit:4;stroke-dasharray:none;stroke-dashoffset:0;stroke-opacity:1;paint-order:normal"
       id="rect49822"
       width="2.1759191"
       height="2.1772995"
       x="12.524985"
       y="91.147583" />
    <rect
       y="91.147583"
       x="35.725647"
       height="2.1772995"
       width="2.1759191"
       id="rect49824"
       style="opacity:1;vector-effect:none;fill:#ff00ff;fill-opacity:0.50196078;fill-rule:evenodd;stroke:none;stroke-width:0.04378174;stroke-linecap:round;stroke-linejoin:miter;stroke-miterlimit:4;stroke-dasharray:none;stroke-dashoffset:0;stroke-opacity:1;paint-order:normal" />
    <rect
       style="opacity:1;vector-effect:none;fill:#ff00ff;fill-opacity:0.50196078;fill-rule:evenodd;stroke:none;stroke-width:0.04378174;stroke-linecap:round;stroke-linejoin:miter;stroke-miterlimit:4;stroke-dasharray:none;stroke-dashoffset:0;stroke-opacity:1;paint-order:normal"
       id="rect49826"
       width="2.1759191"
       height="2.1772995"
       x="12.524985"
       y="107.17003" />
    <rect
       y="107.17003"
       x="35.725647"
       height="2.1772995"
       width="2.1759191"
       id="rect49828"
       style="opacity:1;vector-effect:none;fill:#ff00ff;fill-opacity:0.50196078;fill-rule:evenodd;stroke:none;stroke-width:0.04378174;stroke-linecap:round;stroke-linejoin:miter;stroke-miterlimit:4;stroke-dasharray:none;stroke-dashoffset:0;stroke-opacity:1;paint-order:normal" />
    <rect
       y="14.837339"
       x="3.2122073"
       height="28.000355"
       width="44.000755"
       id="rect50704"
       style="opacity:1;vector-effect:none;fill:#ffff00;fill-opacity:0.50196078;fill-rule:evenodd;stroke:none;stroke-width:0.70603204;stroke-linecap:round;stroke-linejoin:miter;stroke-miterlimit:4;stroke-dasharray:none;stroke-dashoffset:0;stroke-opacity:1;paint-order:normal" />
    <rect
       y="55.530807"
       x="3.7069211"
       height="8.2117252"
       width="8.2117281"
       id="rect50717"
       style="opacity:1;vector-effect:none;fill:#00ff00;fill-opacity:0.50196078;fill-rule:evenodd;stroke:none;stroke-width:0.16517603;stroke-linecap:round;stroke-linejoin:miter;stroke-miterlimit:4;stroke-dasharray:none;stroke-dashoffset:0;stroke-opacity:1;paint-order:normal" />
    <rect
       style="opacity:1;vector-effect:none;fill:#00ff00;fill-opacity:0.50196078;fill-rule:evenodd;stroke:none;stroke-width:0.16517603;stroke-linecap:round;stroke-linejoin:miter;stroke-miterlimit:4;stroke-dasharray:none;stroke-dashoffset:0;stroke-opacity:1;paint-order:normal"
       id="rect50719"
       width="8.2117281"
       height="8.2117252"
       x="15.307249"
       y="55.530807" />
    <rect
       style="opacity:1;vector-effect:none;fill:#00ff00;fill-opacity:0.50196078;fill-rule:evenodd;stroke:none;stroke-width:0.16517603;stroke-linecap:round;stroke-linejoin:miter;stroke-miterlimit:4;stroke-dasharray:none;stroke-dashoffset:0;stroke-opacity:1;paint-order:normal"
       id="rect50721"
       width="8.2117281"
       height="8.2117252"
       x="26.906193"
       y="55.530807" />
    <rect
       y="55.530807"
       x="38.506519"
       height="8.2117252"
       width="8.2117281"
       id="rect50723"
       style="opacity:1;vector-effect:none;fill:#00ff00;fill-opacity:0.50196078;fill-rule:evenodd;stroke:none;stroke-width:0.16517603;stroke-linecap:round;stroke-linejoin:miter;stroke-miterlimit:4;stroke-dasharray:none;stroke-dashoffset:0;stroke-opacity:1;paint-order:normal" />
    <rect
       style="opacity:1;vector-effect:none;fill:#00ff00;fill-opacity:0.50196078;fill-rule:evenodd;stroke:none;stroke-width:0.16517603;stroke-linecap:round;stroke-linejoin:miter;stroke-miterlimit:4;stroke-dasharray:none;stroke-dashoffset:0;stroke-opacity:1;paint-order:normal"
       id="rect50733"
       width="8.2117281"
       height="8.2117252"
       x="3.7069209"
       y="70.144905" />
    <rect
       y="70.144905"
       x="15.307249"
       height="8.2117252"
       width="8.2117281"
       id="rect50735"
       style="opacity:1;vector-effect:none;fill:#00ff00;fill-opacity:0.50196078;fill-rule:evenodd;stroke:none;stroke-width:0.16517603;stroke-linecap:round;stroke-linejoin:miter;stroke-miterlimit:4;stroke-dasharray:none;stroke-dashoffset:0;stroke-opacity:1;paint-order:normal" />
    <rect
       y="70.144905"
       x="26.906193"
       height="8.2117252"
       width="8.2117281"
       id="rect50737"
       style="opacity:1;vector-effect:none;fill:#00ff00;fill-opacity:0.50196078;fill-rule:evenodd;stroke:none;stroke-width:0.16517603;stroke-linecap:round;stroke-linejoin:miter;stroke-miterlimit:4;stroke-dasharray:none;stroke-dashoffset:0;stroke-opacity:1;paint-order:normal" />
    <rect
       style="opacity:1;vector-effect:none;fill:#00ff00;fill-opacity:0.50196078;fill-rule:evenodd;stroke:none;stroke-width:0.16517603;stroke-linecap:round;stroke-linejoin:miter;stroke-miterlimit:4;stroke-dasharray:none;stroke-dashoffset:0;stroke-opacity:1;paint-order:normal"
       id="rect50739"
       width="8.2117281"
       height="8.2117252"
       x="38.506519"
       y="70.144905" />
    <rect
       y="92.143906"
       x="3.7069209"
       height="8.2117252"
       width="8.2117281"
       id="rect50741"
       style="opacity:1;vector-effect:none;fill:#0000ff;fill-opacity:0.50196078;fill-rule:evenodd;stroke:none;stroke-width:0.16517603;stroke-linecap:round;stroke-linejoin:miter;stroke-miterlimit:4;stroke-dasharray:none;stroke-dashoffset:0;stroke-opacity:1;paint-order:normal" />
    <rect
       style="opacity:1;vector-effect:none;fill:#0000ff;fill-opacity:0.50196078;fill-rule:evenodd;stroke:none;stroke-width:0.16517603;stroke-linecap:round;stroke-linejoin:miter;stroke-miterlimit:4;stroke-dasharray:none;stroke-dashoffset:0;stroke-opacity:1;paint-order:normal"
       id="rect50743"
       width="8.2117281"
       height="8.2117252"
       x="15.307249"
       y="92.143906" />
    <rect
       style="opacity:1;vector-effect:none;fill:#0000ff;fill-opacity:0.50196078;fill-rule:evenodd;stroke:none;stroke-width:0.16517603;stroke-linecap:round;stroke-linejoin:miter;stroke-miterlimit:4;stroke-dasharray:none;stroke-dashoffset:0;stroke-opacity:1;paint-order:normal"
       id="rect50745"
       width="8.2117281"
       height="8.2117252"
       x="26.906193"
       y="92.143906" />
    <rect
       y="92.143906"
       x="38.506519"
       height="8.2117252"
       width="8.2117281"
       id="rect50747"
       style="opacity:1;vector-effect:none;fill:#0000ff;fill-opacity:0.50196078;fill-rule:evenodd;stroke:none;stroke-width:0.16517603;stroke-linecap:round;stroke-linejoin:miter;stroke-miterlimit:4;stroke-dasharray:none;stroke-dashoffset:0;stroke-opacity:1;paint-order:normal" />
    <rect
       style="opacity:1;vector-effect:none;fill:#0000ff;fill-opacity:0.50196078;fill-rule:evenodd;stroke:none;stroke-width:0.16517603;stroke-linecap:round;stroke-linejoin:miter;stroke-miterlimit:4;stroke-dasharray:none;stroke-dashoffset:0;stroke-opacity:1;paint-order:normal"
       id="rect50749"
       width="8.2117281"
       height="8.2117252"
       x="3.7069209"
       y="108.1443" />
    <rect
       y="108.1443"
       x="15.307249"
       height="8.2117252"
       width="8.2117281"
       id="rect50751"
       style="opacity:1;vector-effect:none;fill:#0000ff;fill-opacity:0.50196078;fill-rule:evenodd;stroke:none;stroke-width:0.16517603;stroke-linecap:round;stroke-linejoin:miter;stroke-miterlimit:4;stroke-dasharray:none;stroke-dashoffset:0;stroke-opacity:1;paint-order:normal" />
    <rect
       y="108.1443"
       x="26.906193"
       height="8.2117252"
       width="8.2117281"
       id="rect50753"
       style="opacity:1;vector-effect:none;fill:#0000ff;fill-opacity:0.50196078;fill-rule:evenodd;stroke:none;stroke-width:0.16517603;stroke-linecap:round;stroke-linejoin:miter;stroke-miterlimit:4;stroke-dasharray:none;stroke-dashoffset:0;stroke-opacity:1;paint-order:normal" />
    <rect
       style="opacity:1;vector-effect:none;fill:#0000ff;fill-opacity:0.50196078;fill-rule:evenodd;stroke:none;stroke-width:0.16517603;stroke-linecap:round;stroke-linejoin:miter;stroke-miterlimit:4;stroke-dasharray:none;stroke-dashoffset:0;stroke-opacity:1;paint-order:normal"
       id="rect50755"
       width="8.2117281"
       height="8.2117252"
       x="38.506523"
       y="108.1443" />
  </g>
</svg>
